<?xml version="1.0" encoding="UTF-8" standalone="no"?><!DOCTYPE svg PUBLIC "-//W3C//DTD SVG 1.1//EN" "http://www.w3.org/Graphics/SVG/1.1/DTD/svg11.dtd"><!-- Generated by graphviz version 2.40.1 (20161225.0304)
 --><!-- Title: model_graph Pages: 1 --><svg xmlns="http://www.w3.org/2000/svg" xmlns:xlink="http://www.w3.org/1999/xlink" width="286pt" height="571pt" viewBox="0.00 0.00 286.00 571.40">
<g id="graph0" class="graph" transform="scale(1 1) rotate(0) translate(4 567.4)">
<title>model_graph</title>
<polygon fill="#ffffff" stroke="transparent" points="-4,4 -4,-567.4 282,-567.4 282,4 -4,4"/>
<!-- main_models_CourseType -->
<g id="node1" class="node">
<title>main_models_CourseType</title>
<polygon fill="#ffffff" stroke="transparent" points="8,-4 8,-67 161,-67 161,-4 8,-4"/>
<polygon fill="#1b563f" stroke="transparent" points="9.5,-43.5 9.5,-65.5 160.5,-65.5 160.5,-43.5 9.5,-43.5"/>
<text text-anchor="start" x="46.563" y="-52.5" font-family="Roboto" font-size="8.00" fill="#000000">    </text>
<text text-anchor="start" x="54.563" y="-52.5" font-family="Roboto" font-weight="bold" font-size="10.00" fill="#ffffff">    CourseType    </text>
<text text-anchor="start" x="11.5" y="-35.3" font-family="Roboto" font-size="8.00" fill="#000000">    </text>
<text text-anchor="start" x="19.5" y="-35.3" font-family="Roboto" font-weight="bold" font-size="8.00" fill="#000000">id</text>
<text text-anchor="start" x="25.7232" y="-35.3" font-family="Roboto" font-size="8.00" fill="#000000">    </text>
<text text-anchor="start" x="98.4992" y="-35.3" font-family="Roboto" font-size="8.00" fill="#000000">    </text>
<text text-anchor="start" x="106.4992" y="-35.3" font-family="Roboto" font-weight="bold" font-size="8.00" fill="#000000">BigAutoField</text>
<text text-anchor="start" x="150.5008" y="-35.3" font-family="Roboto" font-size="8.00" fill="#000000">    </text>
<text text-anchor="start" x="11.5" y="-22.3" font-family="Roboto" font-size="8.00" fill="#000000">    </text>
<text text-anchor="start" x="19.5" y="-22.3" font-family="Roboto" font-size="8.00" fill="#000000">course_type</text>
<text text-anchor="start" x="58.1512" y="-22.3" font-family="Roboto" font-size="8.00" fill="#000000">    </text>
<text text-anchor="start" x="98.5" y="-22.3" font-family="Roboto" font-size="8.00" fill="#000000">    </text>
<text text-anchor="start" x="106.5" y="-22.3" font-family="Roboto" font-size="8.00" fill="#000000">CharField</text>
<text text-anchor="start" x="138.4944" y="-22.3" font-family="Roboto" font-size="8.00" fill="#000000">    </text>
<text text-anchor="start" x="11.0144" y="-9.3" font-family="Roboto" font-size="8.00" fill="#000000">    </text>
<text text-anchor="start" x="19.0144" y="-9.3" font-family="Roboto" font-size="8.00" fill="#000000">difficulty_coefficient</text>
<text text-anchor="start" x="86.9856" y="-9.3" font-family="Roboto" font-size="8.00" fill="#000000">    </text>
<text text-anchor="start" x="98.5" y="-9.3" font-family="Roboto" font-size="8.00" fill="#000000">    </text>
<text text-anchor="start" x="106.5" y="-9.3" font-family="Roboto" font-size="8.00" fill="#000000">IntegerField</text>
<text text-anchor="start" x="145.5968" y="-9.3" font-family="Roboto" font-size="8.00" fill="#000000">    </text>
<polygon fill="none" stroke="#000000" points="8,-4 8,-67 161,-67 161,-4 8,-4"/>
</g>
<!-- main_models_Course -->
<g id="node2" class="node">
<title>main_models_Course</title>
<polygon fill="#ffffff" stroke="transparent" points="17,-120.6 17,-196.6 152,-196.6 152,-120.6 17,-120.6"/>
<polygon fill="#1b563f" stroke="transparent" points="18.5,-173.6 18.5,-195.6 151.5,-195.6 151.5,-173.6 18.5,-173.6"/>
<text text-anchor="start" x="56.837" y="-182.6" font-family="Roboto" font-size="8.00" fill="#000000">    </text>
<text text-anchor="start" x="64.837" y="-182.6" font-family="Roboto" font-weight="bold" font-size="10.00" fill="#ffffff">    Course    </text>
<text text-anchor="start" x="20.5" y="-165.4" font-family="Roboto" font-size="8.00" fill="#000000">    </text>
<text text-anchor="start" x="28.5" y="-165.4" font-family="Roboto" font-weight="bold" font-size="8.00" fill="#000000">id</text>
<text text-anchor="start" x="34.7232" y="-165.4" font-family="Roboto" font-size="8.00" fill="#000000">    </text>
<text text-anchor="start" x="82.5" y="-165.4" font-family="Roboto" font-size="8.00" fill="#000000">    </text>
<text text-anchor="start" x="90.5" y="-165.4" font-family="Roboto" font-weight="bold" font-size="8.00" fill="#000000">BigAutoField</text>
<text text-anchor="start" x="134.5016" y="-165.4" font-family="Roboto" font-size="8.00" fill="#000000">    </text>
<text text-anchor="start" x="20.5" y="-152.4" font-family="Roboto" font-size="8.00" fill="#000000">    </text>
<text text-anchor="start" x="28.5" y="-152.4" font-family="Roboto" font-weight="bold" font-size="8.00" fill="#000000">course_type</text>
<text text-anchor="start" x="67.1512" y="-152.4" font-family="Roboto" font-size="8.00" fill="#000000">    </text>
<text text-anchor="start" x="82.1196" y="-152.4" font-family="Roboto" font-size="8.00" fill="#000000">    </text>
<text text-anchor="start" x="90.1196" y="-152.4" font-family="Roboto" font-weight="bold" font-size="8.00" fill="#000000">ForeignKey (id)</text>
<text text-anchor="start" x="141.8804" y="-152.4" font-family="Roboto" font-size="8.00" fill="#000000">    </text>
<text text-anchor="start" x="20.3988" y="-139.4" font-family="Roboto" font-size="8.00" fill="#000000">    </text>
<text text-anchor="start" x="28.3988" y="-139.4" font-family="Roboto" font-size="8.00" fill="#000000">course_name</text>
<text text-anchor="start" x="70.6012" y="-139.4" font-family="Roboto" font-size="8.00" fill="#000000">    </text>
<text text-anchor="start" x="82.5" y="-139.4" font-family="Roboto" font-size="8.00" fill="#000000">    </text>
<text text-anchor="start" x="90.5" y="-139.4" font-family="Roboto" font-size="8.00" fill="#000000">CharField</text>
<text text-anchor="start" x="122.4944" y="-139.4" font-family="Roboto" font-size="8.00" fill="#000000">    </text>
<text text-anchor="start" x="20.5" y="-126.4" font-family="Roboto" font-size="8.00" fill="#000000">    </text>
<text text-anchor="start" x="28.5" y="-126.4" font-family="Roboto" font-size="8.00" fill="#000000">duration</text>
<text text-anchor="start" x="55.1608" y="-126.4" font-family="Roboto" font-size="8.00" fill="#000000">    </text>
<text text-anchor="start" x="82.5" y="-126.4" font-family="Roboto" font-size="8.00" fill="#000000">    </text>
<text text-anchor="start" x="90.5" y="-126.4" font-family="Roboto" font-size="8.00" fill="#000000">IntegerField</text>
<text text-anchor="start" x="129.5968" y="-126.4" font-family="Roboto" font-size="8.00" fill="#000000">    </text>
<polygon fill="none" stroke="#000000" points="17,-120.6 17,-196.6 152,-196.6 152,-120.6 17,-120.6"/>
</g>
<!-- main_models_Course&#45;&gt;main_models_CourseType -->
<g id="edge1" class="edge">
<title>main_models_Course-&gt;main_models_CourseType</title>
<path fill="none" stroke="#000000" d="M84.5,-108.4812C84.5,-95.979 84.5,-82.8248 84.5,-71.1805"/>
<ellipse fill="#000000" stroke="#000000" cx="84.5" cy="-112.5803" rx="4" ry="4"/>
<text text-anchor="middle" x="118.9272" y="-91.4" font-family="Roboto" font-size="8.00" fill="#000000"> course_type (course)</text>
</g>
<!-- main_models_Teacher -->
<g id="node3" class="node">
<title>main_models_Teacher</title>
<polygon fill="#ffffff" stroke="transparent" points="143,-250.2 143,-326.2 270,-326.2 270,-250.2 143,-250.2"/>
<polygon fill="#1b563f" stroke="transparent" points="144.5,-303.2 144.5,-325.2 269.5,-325.2 269.5,-303.2 144.5,-303.2"/>
<text text-anchor="start" x="176.903" y="-312.2" font-family="Roboto" font-size="8.00" fill="#000000">    </text>
<text text-anchor="start" x="184.903" y="-312.2" font-family="Roboto" font-weight="bold" font-size="10.00" fill="#ffffff">    Teacher    </text>
<text text-anchor="start" x="146.5" y="-295" font-family="Roboto" font-size="8.00" fill="#000000">    </text>
<text text-anchor="start" x="154.5" y="-295" font-family="Roboto" font-weight="bold" font-size="8.00" fill="#000000">id</text>
<text text-anchor="start" x="160.7232" y="-295" font-family="Roboto" font-size="8.00" fill="#000000">    </text>
<text text-anchor="start" x="200.5" y="-295" font-family="Roboto" font-size="8.00" fill="#000000">    </text>
<text text-anchor="start" x="208.5" y="-295" font-family="Roboto" font-weight="bold" font-size="8.00" fill="#000000">BigAutoField</text>
<text text-anchor="start" x="252.5016" y="-295" font-family="Roboto" font-size="8.00" fill="#000000">    </text>
<text text-anchor="start" x="146.5" y="-282" font-family="Roboto" font-size="8.00" fill="#000000">    </text>
<text text-anchor="start" x="154.5" y="-282" font-family="Roboto" font-weight="bold" font-size="8.00" fill="#000000">course</text>
<text text-anchor="start" x="175.3768" y="-282" font-family="Roboto" font-size="8.00" fill="#000000">    </text>
<text text-anchor="start" x="200.1196" y="-282" font-family="Roboto" font-size="8.00" fill="#000000">    </text>
<text text-anchor="start" x="208.1196" y="-282" font-family="Roboto" font-weight="bold" font-size="8.00" fill="#000000">ForeignKey (id)</text>
<text text-anchor="start" x="259.8804" y="-282" font-family="Roboto" font-size="8.00" fill="#000000">    </text>
<text text-anchor="start" x="146.1788" y="-269" font-family="Roboto" font-size="8.00" fill="#000000">    </text>
<text text-anchor="start" x="154.1788" y="-269" font-family="Roboto" font-size="8.00" fill="#000000">experience</text>
<text text-anchor="start" x="188.8212" y="-269" font-family="Roboto" font-size="8.00" fill="#000000">    </text>
<text text-anchor="start" x="200.5" y="-269" font-family="Roboto" font-size="8.00" fill="#000000">    </text>
<text text-anchor="start" x="208.5" y="-269" font-family="Roboto" font-size="8.00" fill="#000000">IntegerField</text>
<text text-anchor="start" x="247.5968" y="-269" font-family="Roboto" font-size="8.00" fill="#000000">    </text>
<text text-anchor="start" x="146.5" y="-256" font-family="Roboto" font-size="8.00" fill="#000000">    </text>
<text text-anchor="start" x="154.5" y="-256" font-family="Roboto" font-size="8.00" fill="#000000">full_name</text>
<text text-anchor="start" x="186.9352" y="-256" font-family="Roboto" font-size="8.00" fill="#000000">    </text>
<text text-anchor="start" x="200.5" y="-256" font-family="Roboto" font-size="8.00" fill="#000000">    </text>
<text text-anchor="start" x="208.5" y="-256" font-family="Roboto" font-size="8.00" fill="#000000">CharField</text>
<text text-anchor="start" x="240.4944" y="-256" font-family="Roboto" font-size="8.00" fill="#000000">    </text>
<polygon fill="none" stroke="#000000" points="143,-250.2 143,-326.2 270,-326.2 270,-250.2 143,-250.2"/>
</g>
<!-- main_models_Teacher&#45;&gt;main_models_Course -->
<g id="edge2" class="edge">
<title>main_models_Teacher-&gt;main_models_Course</title>
<path fill="none" stroke="#000000" d="M161.3778,-240.2669C149.2255,-227.3576 136.1695,-213.4883 124.3286,-200.9098"/>
<ellipse fill="#000000" stroke="#000000" cx="164.1483" cy="-243.21" rx="4" ry="4"/>
<text text-anchor="middle" x="175.1472" y="-221" font-family="Roboto" font-size="8.00" fill="#000000"> course (teacher)</text>
</g>
<!-- main_models_Group -->
<g id="node4" class="node">
<title>main_models_Group</title>
<polygon fill="#ffffff" stroke="transparent" points="18.5,-379.8 18.5,-455.8 150.5,-455.8 150.5,-379.8 18.5,-379.8"/>
<polygon fill="#1b563f" stroke="transparent" points="19.5,-432.8 19.5,-454.8 149.5,-454.8 149.5,-432.8 19.5,-432.8"/>
<text text-anchor="start" x="57.726" y="-441.8" font-family="Roboto" font-size="8.00" fill="#000000">    </text>
<text text-anchor="start" x="65.726" y="-441.8" font-family="Roboto" font-weight="bold" font-size="10.00" fill="#ffffff">    Group    </text>
<text text-anchor="start" x="21.5" y="-424.6" font-family="Roboto" font-size="8.00" fill="#000000">    </text>
<text text-anchor="start" x="29.5" y="-424.6" font-family="Roboto" font-weight="bold" font-size="8.00" fill="#000000">id</text>
<text text-anchor="start" x="35.7232" y="-424.6" font-family="Roboto" font-size="8.00" fill="#000000">    </text>
<text text-anchor="start" x="80.5" y="-424.6" font-family="Roboto" font-size="8.00" fill="#000000">    </text>
<text text-anchor="start" x="88.5" y="-424.6" font-family="Roboto" font-weight="bold" font-size="8.00" fill="#000000">BigAutoField</text>
<text text-anchor="start" x="132.5016" y="-424.6" font-family="Roboto" font-size="8.00" fill="#000000">    </text>
<text text-anchor="start" x="21.5" y="-411.6" font-family="Roboto" font-size="8.00" fill="#000000">    </text>
<text text-anchor="start" x="29.5" y="-411.6" font-family="Roboto" font-weight="bold" font-size="8.00" fill="#000000">course</text>
<text text-anchor="start" x="50.3768" y="-411.6" font-family="Roboto" font-size="8.00" fill="#000000">    </text>
<text text-anchor="start" x="80.1196" y="-411.6" font-family="Roboto" font-size="8.00" fill="#000000">    </text>
<text text-anchor="start" x="88.1196" y="-411.6" font-family="Roboto" font-weight="bold" font-size="8.00" fill="#000000">ForeignKey (id)</text>
<text text-anchor="start" x="139.8804" y="-411.6" font-family="Roboto" font-size="8.00" fill="#000000">    </text>
<text text-anchor="start" x="21.5" y="-398.6" font-family="Roboto" font-size="8.00" fill="#000000">    </text>
<text text-anchor="start" x="29.5" y="-398.6" font-family="Roboto" font-weight="bold" font-size="8.00" fill="#7b7b7b">teacher</text>
<text text-anchor="start" x="52.5912" y="-398.6" font-family="Roboto" font-size="8.00" fill="#000000">    </text>
<text text-anchor="start" x="80.1196" y="-398.6" font-family="Roboto" font-size="8.00" fill="#000000">    </text>
<text text-anchor="start" x="88.1196" y="-398.6" font-family="Roboto" font-weight="bold" font-size="8.00" fill="#7b7b7b">ForeignKey (id)</text>
<text text-anchor="start" x="139.8804" y="-398.6" font-family="Roboto" font-size="8.00" fill="#000000">    </text>
<text text-anchor="start" x="21.0056" y="-385.6" font-family="Roboto" font-size="8.00" fill="#000000">    </text>
<text text-anchor="start" x="29.0056" y="-385.6" font-family="Roboto" font-size="8.00" fill="#000000">group_name</text>
<text text-anchor="start" x="68.9944" y="-385.6" font-family="Roboto" font-size="8.00" fill="#000000">    </text>
<text text-anchor="start" x="80.5" y="-385.6" font-family="Roboto" font-size="8.00" fill="#000000">    </text>
<text text-anchor="start" x="88.5" y="-385.6" font-family="Roboto" font-size="8.00" fill="#000000">CharField</text>
<text text-anchor="start" x="120.4944" y="-385.6" font-family="Roboto" font-size="8.00" fill="#000000">    </text>
<polygon fill="none" stroke="#000000" points="18.5,-379.8 18.5,-455.8 150.5,-455.8 150.5,-379.8 18.5,-379.8"/>
</g>
<!-- main_models_Group&#45;&gt;main_models_Course -->
<g id="edge3" class="edge">
<title>main_models_Group-&gt;main_models_Course</title>
<path fill="none" stroke="#000000" d="M79.8609,-367.2613C78.9352,-355.1328 78.1037,-342.2136 77.6336,-330.2 76.1738,-292.8952 76.1738,-283.5048 77.6336,-246.2 78.2122,-231.414 79.3381,-215.2563 80.5136,-200.8892"/>
<ellipse fill="#000000" stroke="#000000" cx="80.198" cy="-371.5233" rx="4" ry="4"/>
<text text-anchor="middle" x="102.9332" y="-285.8" font-family="Roboto" font-size="8.00" fill="#000000"> course (group)</text>
</g>
<!-- main_models_Group&#45;&gt;main_models_Teacher -->
<g id="edge4" class="edge">
<title>main_models_Group-&gt;main_models_Teacher</title>
<path fill="none" stroke="#000000" d="M129.6222,-369.8669C141.7745,-356.9576 154.8305,-343.0883 166.6714,-330.5098"/>
<ellipse fill="#000000" stroke="#000000" cx="126.8517" cy="-372.81" rx="4" ry="4"/>
<text text-anchor="middle" x="174.0404" y="-350.6" font-family="Roboto" font-size="8.00" fill="#000000"> teacher (group)</text>
</g>
<!-- main_models_Student -->
<g id="node5" class="node">
<title>main_models_Student</title>
<polygon fill="#ffffff" stroke="transparent" points="25.5,-509.4 25.5,-559.4 143.5,-559.4 143.5,-509.4 25.5,-509.4"/>
<polygon fill="#1b563f" stroke="transparent" points="26.5,-536.4 26.5,-558.4 142.5,-558.4 142.5,-536.4 26.5,-536.4"/>
<text text-anchor="start" x="55.222" y="-545.4" font-family="Roboto" font-size="8.00" fill="#000000">    </text>
<text text-anchor="start" x="63.222" y="-545.4" font-family="Roboto" font-weight="bold" font-size="10.00" fill="#ffffff">    Student    </text>
<text text-anchor="start" x="28.5" y="-528.2" font-family="Roboto" font-size="8.00" fill="#000000">    </text>
<text text-anchor="start" x="36.5" y="-528.2" font-family="Roboto" font-weight="bold" font-size="8.00" fill="#000000">id</text>
<text text-anchor="start" x="42.7232" y="-528.2" font-family="Roboto" font-size="8.00" fill="#000000">    </text>
<text text-anchor="start" x="80.4992" y="-528.2" font-family="Roboto" font-size="8.00" fill="#000000">    </text>
<text text-anchor="start" x="88.4992" y="-528.2" font-family="Roboto" font-weight="bold" font-size="8.00" fill="#000000">BigAutoField</text>
<text text-anchor="start" x="132.5008" y="-528.2" font-family="Roboto" font-size="8.00" fill="#000000">    </text>
<text text-anchor="start" x="28.2824" y="-515.2" font-family="Roboto" font-size="8.00" fill="#000000">    </text>
<text text-anchor="start" x="36.2824" y="-515.2" font-family="Roboto" font-size="8.00" fill="#000000">full_name</text>
<text text-anchor="start" x="68.7176" y="-515.2" font-family="Roboto" font-size="8.00" fill="#000000">    </text>
<text text-anchor="start" x="80.5" y="-515.2" font-family="Roboto" font-size="8.00" fill="#000000">    </text>
<text text-anchor="start" x="88.5" y="-515.2" font-family="Roboto" font-size="8.00" fill="#000000">CharField</text>
<text text-anchor="start" x="120.4944" y="-515.2" font-family="Roboto" font-size="8.00" fill="#000000">    </text>
<polygon fill="none" stroke="#000000" points="25.5,-509.4 25.5,-559.4 143.5,-559.4 143.5,-509.4 25.5,-509.4"/>
</g>
<!-- main_models_Student&#45;&gt;main_models_Group -->
<g id="edge5" class="edge">
<title>main_models_Student-&gt;main_models_Group</title>
<path fill="none" stroke="#000000" d="M84.5,-496.9987C84.5,-487.8344 84.5,-477.876 84.5,-468.2122"/>
<ellipse fill="#000000" stroke="#000000" cx="84.5" cy="-501.2777" rx="4" ry="4"/>
<ellipse fill="#000000" stroke="#000000" cx="84.5" cy="-464.1877" rx="4" ry="4"/>
<text text-anchor="middle" x="110.0492" y="-480.2" font-family="Roboto" font-size="8.00" fill="#000000"> group (student)</text>
</g>
</g>
</svg>